<?xml version="1.0"?>
<svg xmlns="http://www.w3.org/2000/svg" height="512px" viewBox="0 0 512 512" width="512px" class=""><g transform="matrix(0.989802 0 0 0.989802 2.61068 2.61068)"><path d="m512 256c0 141.386719-114.613281 256-256 256s-256-114.613281-256-256 114.613281-256 256-256 256 114.613281 256 256zm0 0" fill="#414952" data-original="#414952" class="" style="fill:#225D29" data-old_color="#225B29"/><path d="m280.625 510.816406c129.828125-12.394531 231.375-121.738281 231.375-254.816406 0-31.785156-5.808594-62.214844-16.398438-90.296875l-72.570312-72.570313-306.722656 25.273438-27.339844 55.378906 203.457031 203.453125-103.75 41.628907zm0 0" fill="#23272b" data-original="#23272B" class="" style="fill:#1A4D2E" data-old_color="#1A4C2D"/><path d="m88.96875 93.132812v80.652344h53.078125v-27.578125h87.417969v219.585938h-40.789063v53.074219h134.648438v-53.074219h-40.789063v-219.585938h87.417969v27.578125h53.078125v-80.652344zm0 0" fill="#fff" data-original="#FFF" class=""/><path d="m255.59375 93.132812v325.734376h67.730469v-53.074219h-40.789063v-219.585938h87.417969v27.578125h53.078125v-80.652344zm0 0" fill="#e9edf5" data-original="#E9EDF5" class="active-path" style="fill:#E9EDF5"/></g> </svg>
